<svg xmlns="http://www.w3.org/2000/svg" xmlns:xlink="http://www.w3.org/1999/xlink" width="764.115" height="800.982" viewBox="0 0 764.115 800.982">
  <defs>
    <clipPath id="clip-path">
      <rect id="Rectangle_61958" data-name="Rectangle 61958" width="386" height="386" transform="translate(0 603.205)" fill="none"/>
    </clipPath>
  </defs>
  <g id="bg_index_2" transform="translate(331.855 -691.861)">
    <g id="Group_125721" data-name="Group 125721" transform="translate(16567.035 19679.613)">
      <path id="Path_95944" data-name="Path 95944" d="M208.57,337.457c39.766-26.6,77.334-56.921,122.31-74.373,87.456-33.935,189.648-18.5,197.4,92.541,8.345,119.573,123.2,101.732,199.249,156.048,20.86,14.9,34.82,34.67,38.946,60.495,6.854,42.906-11.959,83.146-25.984,122.85-14.846,42.032-25.94,84.455-24.341,129.411,4.129,116.014-153.287,134.145-234.6,162.668-36.413,12.773-69.483,31.289-105.126,45.453-25.783,10.246-55.788,12.3-77.18-8.036-23.354-22.208-30.763-57.418-52.7-81.079C215.5,909.956,173.829,910.457,131.6,918.972c-29.762,6-34.009-10.646-56.8-38.129-26.714-32.211-21.8-95.1-29.975-134.384-6.109-29.354-14.549-57.989-22.218-86.947-14.96-56.48-28.27-124.019-8.983-181.178,10.9-32.3,37.757-61.283,66.777-78.827C121.422,374.709,168.012,364.594,208.57,337.457Z" transform="translate(-16902.799 -19234.734)" fill="none" stroke="#a0c9ec" stroke-miterlimit="10" stroke-width="0.25"/>
      <path id="Path_95945" data-name="Path 95945" d="M79.883,402.378c40.742-24.629,87.016-34.677,127.3-61.628,39.5-26.422,76.81-56.535,121.48-73.869,86.862-33.7,188.36-18.375,196.058,91.914,8.291,118.761,122.369,101.039,197.9,154.988,20.718,14.8,34.583,34.435,38.681,60.081,6.808,42.617-11.878,82.583-25.809,122.018-7.712,21.83-14.379,43.771-18.616,66.152-4.076,21.725-7.337,43.281-7.3,65.224.068,40-17.711,68.126-45.944,88.744-30.1,22.035-70.948,35.609-110.007,47.044-27.595,8.078-54.229,15.023-75.571,22.732-35.629,12.814-67.966,31.268-102.908,45.315-25.4,10.249-55.176,12.5-76.579-7.147-13.806-12.62-22.251-29.724-31.2-46.55-6.269-11.782-12.81-23.367-21.715-33.074-17.12-18.639-37.418-27-59.371-29.363-17.247-1.9-35.478,0-53.845,3.5-29.344,5.647-33.757-10.672-56.788-36.763-11.077-12.55-16.639-30.437-20.482-49.995-5.574-28.377-5.7-60.33-10.51-83.953q-2.16-10.595-4.689-21.022c-5.345-22.161-11.642-44.041-17.486-66.108C7.623,604.521-5.6,537.44,13.56,480.67,24.384,448.591,51.06,419.8,79.883,402.378Z" transform="translate(-16902.799 -19233.363)" fill="none" stroke="#a0c9ec" stroke-miterlimit="10" stroke-width="0.25"/>
      <path id="Path_95946" data-name="Path 95946" d="M79.364,405.248c40.463-24.463,86.42-34.442,126.428-61.208,39.226-26.242,76.284-56.149,120.649-73.363,86.268-33.474,187.073-18.251,194.719,91.286C529.393,479.91,642.692,462.311,717.7,515.892c20.578,14.694,34.349,34.2,38.418,59.671,6.761,42.326-11.8,82.017-25.632,121.183-7.863,22.257-14.61,44.63-18.648,67.5-3.881,22.35-8.124,43.98-8.842,65.84-1.278,38.888-18.1,66.376-46.079,86.271-29.754,21.264-69.914,34.127-108.292,45.374-27.087,7.937-53.147,14.94-74.071,22.727-34.844,12.855-66.45,31.246-100.689,45.177-25.016,10.253-54.525,12.65-75.978-6.257-13.845-12.2-22.543-28.816-31.529-45.4-6.307-11.623-12.821-23.1-21.6-32.769-16.836-18.509-36.7-27.093-58.29-29.886-17.016-2.2-35.024-.642-53.2,2.622-28.927,5.295-33.542-10.7-56.777-35.4-11.374-12.094-16.85-29.835-21.123-49.5-6.1-28.062-6.144-60.171-10.883-84.008q-2.124-10.647-4.633-21.072c-5.328-22.211-11.643-44.131-17.5-66.242C7.6,606.008-5.531,539.385,13.494,483,24.245,451.144,50.739,422.552,79.364,405.248Z" transform="translate(-16902.799 -19231.994)" fill="none" stroke="#a0c9ec" stroke-miterlimit="10" stroke-width="0.25"/>
      <path id="Path_95947" data-name="Path 95947" d="M78.846,408.117c40.185-24.293,85.825-34.2,125.558-60.787,38.956-26.06,75.759-55.761,119.818-72.858C409.9,241.229,510.007,256.347,517.6,365.132,525.777,482.267,638.3,464.789,712.792,518c20.436,14.6,34.112,33.965,38.154,59.261,6.713,42.033-11.717,81.453-25.456,120.349-8.013,22.681-14.841,45.489-18.682,68.85-3.686,22.98-8.9,44.645-10.383,66.454-2.568,37.745-18.486,64.63-46.216,83.8-29.405,20.49-68.879,32.641-106.576,43.7-26.577,7.8-52.047,14.9-72.572,22.72-34.031,12.97-64.933,31.224-98.47,45.039-24.633,10.256-53.9,12.823-75.378-5.368-13.9-11.77-22.832-27.907-31.857-44.25-6.344-11.465-12.833-22.826-21.485-32.464-16.554-18.382-35.978-27.216-57.209-30.408-16.784-2.522-34.58-1.329-52.56,1.743-28.522,4.869-33.361-10.72-56.765-34.034-11.692-11.647-17.055-29.231-21.766-49.011-6.608-27.746-6.584-60.011-11.254-84.063q-2.091-10.7-4.579-21.123c-5.312-22.262-11.643-44.222-17.511-66.375-14.655-55.33-27.695-121.5-8.8-177.488C24.1,453.7,50.417,425.3,78.846,408.117Z" transform="translate(-16902.799 -19230.623)" fill="none" stroke="#a0c9ec" stroke-miterlimit="10" stroke-width="0.25"/>
      <path id="Path_95948" data-name="Path 95948" d="M78.327,410.986c39.907-24.125,85.229-33.967,124.689-60.367C241.7,324.74,278.249,295.245,322,278.267c85.08-33.012,184.5-18,192.039,90.028,8.118,116.326,119.859,98.969,193.839,151.811,20.292,14.494,33.874,33.728,37.888,58.851,6.667,41.743-11.635,80.889-25.279,119.515-8.163,23.108-15.129,46.339-18.714,70.2-3.549,23.6-9.661,45.276-11.925,67.07-3.8,36.568-18.918,62.815-46.348,81.332-29.107,19.648-67.849,31.16-104.863,42.033-26.067,7.655-50.958,14.827-71.072,22.713-33.235,13.033-63.45,31.121-96.251,44.9-24.275,10.2-53.27,13-74.775-4.476-13.956-11.338-23.125-27-32.187-43.1-6.382-11.308-12.846-22.555-21.371-32.161-16.27-18.252-35.258-27.339-56.13-30.93-16.549-2.847-34.127-1.982-51.917.865-28.107,4.5-33.22-10.734-56.751-32.668-12.024-11.207-17.253-28.626-22.409-48.521-7.106-27.427-7.024-59.852-11.628-84.116-1.37-7.17-2.874-14.244-4.522-21.175-5.3-22.314-11.644-44.314-17.524-66.508C7.549,608.983-5.4,543.278,13.364,487.672,23.967,456.251,50.1,428.051,78.327,410.986Z" transform="translate(-16902.799 -19229.254)" fill="none" stroke="#a0c9ec" stroke-miterlimit="10" stroke-width="0.25"/>
      <path id="Path_95949" data-name="Path 95949" d="M77.809,413.855c39.628-23.956,84.636-33.728,123.817-59.944,38.415-25.7,74.709-54.989,118.158-71.848,84.486-32.783,183.21-17.874,190.7,89.4,8.063,115.513,119.023,98.276,192.486,150.749,20.152,14.392,33.638,33.493,37.623,58.44,6.621,41.451-11.554,80.325-25.1,118.681-8.313,23.534-15.368,47.2-18.747,71.549-3.363,24.225-10.407,45.873-13.467,67.684-4.961,35.367-19.313,61.053-46.483,78.863-28.769,18.858-66.814,29.675-103.147,40.361-25.559,7.514-49.869,14.757-69.571,22.708-32.442,13.1-61.94,31.082-94.033,44.762-23.9,10.189-52.645,13.172-74.177-3.586-14.01-10.9-23.413-26.091-32.515-41.951-6.42-11.146-12.856-22.282-21.254-31.856-15.988-18.123-34.538-27.462-55.049-31.451-16.318-3.174-33.674-2.636-51.277-.015-27.691,4.122-33.12-10.739-56.739-31.3-12.373-10.772-17.446-28.018-23.05-48.029-7.593-27.111-7.466-59.694-12-84.17-1.348-7.206-2.828-14.3-4.466-21.227-5.281-22.363-11.647-44.4-17.536-66.641C7.526,610.471-5.334,545.224,13.3,490.006,23.829,458.8,49.775,430.8,77.809,413.855Z" transform="translate(-16902.799 -19227.881)" fill="none" stroke="#a0c9ec" stroke-miterlimit="10" stroke-width="0.25"/>
      <path id="Path_95950" data-name="Path 95950" d="M77.29,416.724c39.35-23.788,84.041-33.492,122.947-59.521,38.145-25.521,74.183-54.6,117.327-71.345,83.892-32.552,181.922-17.747,189.358,88.773,8.006,114.7,118.185,97.587,191.134,149.691,20.01,14.291,33.4,33.258,37.36,58.029,6.574,41.16-11.473,79.759-24.926,117.846-8.464,23.962-15.61,48.057-18.783,72.9S680.576,819.54,676.7,841.4c-6.054,34.14-19.709,59.288-46.62,76.392-28.43,18.069-65.779,28.193-101.431,38.691-25.049,7.374-48.781,14.684-68.071,22.7-31.649,13.155-60.431,31.041-91.814,44.625-23.52,10.177-52.021,13.345-73.576-2.7-14.068-10.473-23.7-25.183-32.845-40.8-6.457-10.988-12.867-22.014-21.138-31.552-15.706-18-33.819-27.589-53.969-31.973-16.087-3.5-33.222-3.288-50.635-.894-27.273,3.752-33.061-10.729-56.726-29.937-12.742-10.342-17.631-27.411-23.693-47.54-8.068-26.791-7.9-59.532-12.373-84.223-1.325-7.243-2.782-14.36-4.411-21.277C34.133,710.5,27.75,688.42,21.85,666.139,7.5,611.959-5.268,547.17,13.233,492.341,23.688,461.358,49.453,433.554,77.29,416.724Z" transform="translate(-16902.799 -19226.512)" fill="none" stroke="#a0c9ec" stroke-miterlimit="10" stroke-width="0.25"/>
      <path id="Path_95951" data-name="Path 95951" d="M76.772,419.595c39.07-23.619,83.446-33.256,122.076-59.1,37.876-25.338,73.659-54.214,116.5-70.838,83.3-32.321,180.636-17.621,188.018,88.145,7.951,113.889,117.35,96.9,189.781,148.63,19.87,14.191,33.165,33.023,37.1,57.619,6.528,40.87-11.392,79.2-24.751,117.014-8.614,24.385-15.845,48.915-18.814,74.247-2.987,25.48-11.835,46.985-16.549,68.915-7.07,32.9-20.1,57.528-46.755,73.924-28.089,17.281-64.745,26.707-99.715,37.018-24.541,7.233-47.693,14.611-66.572,22.7-30.855,13.214-58.922,31.008-89.595,44.487-23.143,10.171-51.4,13.522-72.976-1.806-14.128-10.038-23.994-24.274-33.174-39.65-6.493-10.83-12.878-21.742-21.023-31.247-15.422-17.867-33.1-27.716-52.887-32.495-15.856-3.829-32.77-3.942-49.993-1.774-26.856,3.38-33.043-10.7-56.713-28.571-13.129-9.913-17.811-26.8-24.336-47.048-8.532-26.475-8.345-59.374-12.746-84.28-1.3-7.277-2.736-14.418-4.354-21.327-5.251-22.465-11.651-44.584-17.563-66.907C7.475,613.445-5.2,549.116,13.168,494.675,23.548,463.911,49.131,436.3,76.772,419.595Z" transform="translate(-16902.799 -19225.141)" fill="none" stroke="#a0c9ec" stroke-miterlimit="10" stroke-width="0.25"/>
      <path id="Path_95952" data-name="Path 95952" d="M76.253,422.465c38.792-23.452,82.852-33.019,121.207-58.68,37.606-25.159,73.134-53.83,115.667-70.334,82.706-32.091,179.347-17.5,186.678,87.517,7.893,113.078,116.513,96.205,188.428,147.571,19.728,14.09,32.93,32.789,36.83,57.209,6.482,40.575-11.311,78.63-24.572,116.176-8.764,24.813-16.081,49.776-18.848,75.6-2.8,26.11-12.512,47.5-18.09,69.529-8.014,31.64-20.5,55.766-46.89,71.454-27.749,16.495-63.712,25.224-98,35.35-24.031,7.09-46.6,14.536-65.071,22.688-30.062,13.271-57.413,30.971-87.378,44.349-22.765,10.162-50.781,13.7-72.373-.917-14.188-9.6-24.286-23.365-33.505-38.5C253.8,970.8,247.447,960,239.427,950.533c-15.14-17.738-32.381-27.846-51.806-33.015-15.625-4.16-32.317-4.595-49.353-2.655-26.437,3.01-33.066-10.649-56.7-27.206-13.537-9.483-17.984-26.2-24.979-46.558C47.6,814.941,47.8,781.886,43.472,756.767c-1.279-7.314-2.69-14.478-4.3-21.38-5.235-22.514-11.651-44.674-17.576-67.041C7.451,614.935-5.137,551.063,13.1,497.011,23.41,466.465,48.811,439.055,76.253,422.465Z" transform="translate(-16902.799 -19223.771)" fill="none" stroke="#a0c9ec" stroke-miterlimit="10" stroke-width="0.25"/>
      <path id="Path_95953" data-name="Path 95953" d="M75.735,425.333c38.512-23.282,82.255-32.781,120.336-58.26,37.337-24.975,72.61-53.441,114.837-69.828,82.11-31.86,178.06-17.371,185.337,86.89C504.082,496.4,611.923,479.649,683.32,530.647c19.586,13.987,32.694,32.55,36.568,56.8,6.435,40.286-11.231,78.066-24.4,115.344-8.913,25.237-16.315,50.636-18.882,76.948-2.6,26.737-13.158,48-19.629,70.143-8.883,30.378-20.891,54-47.024,68.985-27.407,15.708-62.68,23.742-96.286,33.678C490.145,959.491,468.152,967,450.1,975.224c-29.269,13.325-55.9,30.934-85.159,44.208-22.387,10.158-50.164,13.878-71.773-.026-14.249-9.169-24.575-22.455-33.834-37.349-6.569-10.514-12.878-21.216-20.791-30.639-14.818-17.64-31.665-27.978-50.727-33.538-15.4-4.489-31.863-5.243-48.71-3.53-26.021,2.641-33.13-10.574-56.688-25.842-13.962-9.048-18.15-25.588-25.621-46.067C47.365,816.6,47.568,783.385,43.3,758.055c-1.256-7.35-2.643-14.534-4.244-21.43-5.218-22.566-11.653-44.766-17.588-67.174C7.426,616.421-5.071,553.008,13.037,499.344,23.271,469.017,48.489,441.8,75.735,425.333Z" transform="translate(-16902.799 -19222.4)" fill="none" stroke="#a0c9ec" stroke-miterlimit="10" stroke-width="0.25"/>
      <path id="Path_95954" data-name="Path 95954" d="M75.216,428.2c38.235-23.113,81.661-32.544,119.466-57.837,37.065-24.8,72.084-53.057,114.006-69.324,81.518-31.632,176.772-17.246,184,86.26,7.781,111.453,114.84,94.823,185.723,145.452,19.444,13.888,32.456,32.317,36.3,56.386,6.388,40-11.149,77.5-24.221,114.51-9.065,25.664-16.55,51.5-18.914,78.3-2.416,27.367-13.775,48.492-21.173,70.759-9.672,29.113-21.28,52.246-47.159,66.515-27.064,14.921-61.645,22.257-94.571,32.006-23.013,6.811-44.427,14.387-62.072,22.678-28.474,13.379-54.391,30.9-82.939,44.07-22.01,10.152-49.549,14.057-71.172.863-14.311-8.733-24.867-21.546-34.165-36.2-6.6-10.353-12.887-20.945-20.676-30.332-14.532-17.513-30.944-28.112-49.646-34.061-15.164-4.823-31.409-5.893-48.068-4.411-25.6,2.278-33.23-10.466-56.674-24.475C68.854,880.754,64.953,864.378,57,843.785c-9.862-25.532-9.667-58.9-13.864-84.44-1.233-7.388-2.6-14.594-4.188-21.484-5.2-22.615-11.655-44.854-17.6-67.3C7.4,617.909-5,554.955,12.973,501.678,23.13,471.573,48.167,444.555,75.216,428.2Z" transform="translate(-16902.799 -19221.029)" fill="none" stroke="#a0c9ec" stroke-miterlimit="10" stroke-width="0.25"/>
      <path id="Path_95955" data-name="Path 95955" d="M74.7,431.073c37.957-22.946,81.067-32.307,118.6-57.416,36.8-24.617,71.56-52.671,113.177-68.82,80.924-31.4,175.483-17.12,182.656,85.632C496.85,501.113,603.131,484.6,673.5,534.863c19.3,13.784,32.221,32.08,36.039,55.974,6.342,39.705-11.068,76.94-24.046,113.677-9.215,26.091-16.782,52.355-18.948,79.646-2.222,27.995-14.355,48.971-22.713,71.373-10.393,27.853-21.67,50.487-47.294,64.045-26.719,14.137-60.611,20.775-92.856,30.336-22.5,6.669-43.34,14.307-60.571,22.67-27.682,13.433-52.88,30.874-80.722,43.933-21.629,10.148-48.936,14.241-70.571,1.755-14.375-8.3-25.156-20.64-34.493-35.048-6.643-10.195-12.9-20.677-20.56-30.029-14.248-17.386-30.227-28.249-48.567-34.582-14.933-5.158-30.953-6.542-47.426-5.291-25.18,1.913-33.365-10.33-56.662-23.109-14.869-8.156-18.46-24.379-26.9-45.086-10.285-25.22-10.108-58.736-14.238-84.493-1.209-7.423-2.551-14.653-4.131-21.535-5.188-22.666-11.657-44.945-17.613-67.438C7.377,619.4-4.94,556.9,12.909,504.013,22.993,474.126,47.845,447.305,74.7,431.073Z" transform="translate(-16902.799 -19219.66)" fill="none" stroke="#a0c9ec" stroke-miterlimit="10" stroke-width="0.25"/>
      <path id="Path_95956" data-name="Path 95956" d="M74.179,433.942c37.679-22.777,80.473-32.069,117.727-56.994,36.525-24.436,71.033-52.283,112.345-68.315,80.331-31.17,174.2-17,181.317,85,7.667,109.83,113.167,93.442,183.017,143.333,19.16,13.685,31.986,31.848,35.774,55.565,6.3,39.413-10.987,76.374-23.869,112.842-9.365,26.517-17.014,53.216-18.981,81-2.028,28.623-14.9,49.448-24.256,71.989-11.043,26.6-22.058,48.726-47.429,61.575-26.372,13.355-59.578,19.29-91.139,28.665-22,6.528-42.251,14.23-59.072,22.665-26.889,13.483-51.369,30.844-78.5,43.793-21.252,10.146-48.325,14.424-69.97,2.644-14.441-7.858-25.448-19.73-34.824-33.9-6.679-10.034-12.906-20.4-20.444-29.722-13.963-17.259-29.509-28.386-47.486-35.1-14.7-5.493-30.5-7.19-46.785-6.169-24.762,1.55-33.534-10.161-56.65-21.745-15.349-7.69-18.6-23.777-27.547-44.6-10.7-24.913-10.546-58.575-14.61-84.547-1.186-7.459-2.5-14.711-4.076-21.585C33.547,717.62,27.061,695.3,21.093,672.764,7.353,620.886-4.874,558.848,12.842,506.347,22.853,476.679,47.525,450.056,74.179,433.942Z" transform="translate(-16902.799 -19218.289)" fill="none" stroke="#a0c9ec" stroke-miterlimit="10" stroke-width="0.25"/>
      <path id="Path_95957" data-name="Path 95957" d="M73.66,436.812c37.4-22.609,79.877-31.833,116.857-56.574,36.255-24.255,70.509-51.9,111.514-67.808,79.738-30.941,172.91-16.87,179.977,84.374,7.61,109.02,112.332,92.751,181.664,142.275,19.02,13.582,31.748,31.61,35.509,55.153,6.248,39.122-10.9,75.809-23.692,112.008-9.517,26.942-17.245,54.075-19.014,82.345-1.832,29.251-11.532,52.136-25.8,72.6-6.935,27.027-22.446,46.971-47.563,59.1-26.025,12.571-58.544,17.808-89.426,26.995-21.485,6.386-41.163,14.151-57.571,22.658-26.1,13.531-49.856,30.816-76.284,43.657-20.871,10.142-47.714,14.609-69.368,3.533-14.507-7.418-25.738-18.821-35.154-32.749-6.717-9.876-12.917-20.136-20.329-29.419-13.678-17.131-28.789-28.526-46.405-35.625-14.472-5.832-30.044-7.836-46.143-7.05-24.34,1.19-33.728-9.953-56.638-20.378-15.845-7.21-18.744-23.175-28.189-44.1C46.5,823.2,46.621,789.395,42.625,763.209c-1.163-7.494-2.458-14.769-4.019-21.638-5.157-22.766-11.659-45.124-17.639-67.7-13.639-51.5-25.775-113.076-8.189-165.187C22.713,479.233,47.2,452.807,73.66,436.812Z" transform="translate(-16902.799 -19216.92)" fill="none" stroke="#a0c9ec" stroke-miterlimit="10" stroke-width="0.25"/>
      <path id="Path_95958" data-name="Path 95958" d="M73.143,439.681c37.119-22.441,79.282-31.6,115.986-56.153,35.985-24.074,69.983-51.511,110.684-67.3,79.143-30.709,171.624-16.743,178.637,83.747C486,508.178,589.944,492.032,658.761,541.187c18.878,13.482,31.511,31.375,35.244,54.744,6.2,38.83-10.823,75.244-23.516,111.173-9.667,27.368-17.473,54.935-19.047,83.695-1.636,29.881-11.916,52.874-27.338,73.218-7.582,25.948-22.834,45.218-47.7,56.635-25.678,11.792-57.51,16.324-87.71,25.324a302.6,302.6,0,0,0-56.072,22.653c-25.306,13.576-48.342,30.791-74.065,43.519-20.492,10.139-47.108,14.8-68.77,4.423-14.573-6.979-26.027-17.912-35.481-31.6-6.755-9.718-12.928-19.864-20.215-29.113-13.4-17-28.07-28.67-45.324-36.148-14.24-6.171-29.589-8.48-45.5-7.928-23.919.831-33.947-9.712-56.624-19.013-16.357-6.709-18.877-22.578-28.832-43.614C46.307,824.847,46.384,790.9,42.456,764.5c-1.14-7.531-2.412-14.828-3.964-21.688-5.139-22.818-11.661-45.216-17.651-67.836C7.3,623.861-4.742,562.741,12.711,511.017,22.575,481.789,46.88,455.557,73.143,439.681Z" transform="translate(-16902.799 -19215.549)" fill="none" stroke="#a0c9ec" stroke-miterlimit="10" stroke-width="0.25"/>
      <path id="Path_95959" data-name="Path 95959" d="M72.624,442.551c36.842-22.273,78.688-31.36,115.116-55.731,35.716-23.9,69.459-51.124,109.855-66.8,78.549-30.479,170.335-16.619,177.3,83.118,7.5,107.394,110.657,91.37,178.96,140.155,18.735,13.381,31.274,31.14,34.979,54.333,6.155,38.538-10.743,74.681-23.339,110.34-9.818,27.793-17.7,55.795-19.082,85.043-1.439,30.509-12.3,53.613-28.88,73.832-8.226,24.868-23.217,43.464-47.833,54.167-25.328,11.012-56.477,14.84-86,23.651a275.384,275.384,0,0,0-54.571,22.647c-24.517,13.621-46.829,30.767-71.848,43.38-20.111,10.141-46.5,14.986-68.167,5.314-14.642-6.536-26.319-17-35.812-30.45-6.792-9.557-12.939-19.592-20.1-28.808-13.11-16.874-27.349-28.815-44.243-36.67-14.009-6.515-29.134-9.125-44.859-8.807-23.5.474-34.186-9.433-56.612-17.647-16.88-6.184-19-21.985-29.474-43.123-11.894-24.01-11.867-58.1-15.729-84.712-1.117-7.566-2.366-14.884-3.909-21.738-5.124-22.868-11.662-45.307-17.663-67.969C7.279,625.348-4.676,564.687,12.646,513.351,22.436,484.34,46.56,458.307,72.624,442.551Z" transform="translate(-16902.799 -19214.178)" fill="none" stroke="#a0c9ec" stroke-miterlimit="10" stroke-width="0.25"/>
      <path id="Path_95960" data-name="Path 95960" d="M72.105,445.421c36.564-22.1,78.093-31.122,114.247-55.311,35.444-23.713,68.932-50.738,109.022-66.293,77.956-30.248,169.047-16.493,175.956,82.49,7.44,106.585,109.822,90.68,177.607,139.1,18.594,13.279,31.038,30.9,34.715,53.922,6.111,38.248-10.661,74.115-23.162,109.506-9.968,28.22-17.929,56.655-19.116,86.393-1.24,31.138-12.681,54.351-30.42,74.448-8.874,23.787-23.605,41.71-47.969,51.694-24.976,10.237-55.443,13.358-84.28,21.983a251.049,251.049,0,0,0-53.071,22.639c-23.727,13.663-45.313,30.744-69.628,43.242-19.73,10.143-45.9,15.179-67.568,6.2-14.711-6.092-26.61-16.095-36.14-29.3-6.829-9.4-12.951-19.322-19.984-28.5-12.828-16.747-26.629-28.963-43.163-37.192-13.776-6.858-28.678-9.767-44.218-9.687-23.078.12-34.44-9.117-56.6-16.281-17.417-5.631-19.121-21.4-30.117-42.634-12.281-23.716-12.309-57.937-16.1-84.763-1.094-7.6-2.32-14.944-3.853-21.792-5.108-22.917-11.663-45.4-17.677-68.1-13.333-50.346-25.2-110.548-8.006-161.5C22.3,486.893,46.238,461.057,72.105,445.421Z" transform="translate(-16902.799 -19212.807)" fill="none" stroke="#a0c9ec" stroke-miterlimit="10" stroke-width="0.25"/>
      <path id="Path_95961" data-name="Path 95961" d="M71.586,448.29c36.285-21.934,77.5-30.884,113.375-54.888,35.175-23.532,68.409-50.351,108.193-65.79,77.362-30.018,167.76-16.368,174.616,81.863,7.383,105.771,108.986,89.989,176.255,138.036,18.452,13.178,30.8,30.67,34.451,53.511,6.062,37.957-10.581,73.551-22.988,108.673-10.118,28.644-18.155,57.514-19.147,87.742C635.3,829.2,623.275,852.524,604.38,872.5c-9.518,22.707-23.987,39.959-48.1,49.226-24.625,9.461-54.41,11.873-82.564,20.31a229.141,229.141,0,0,0-51.571,22.634c-22.939,13.7-43.8,30.725-67.411,43.1-19.348,10.147-45.29,15.373-66.966,7.094a80.508,80.508,0,0,1-36.47-28.149c-6.866-9.24-12.96-19.049-19.868-28.2-12.546-16.616-25.907-29.111-42.083-37.714-13.541-7.2-28.222-10.408-43.576-10.565-22.655-.234-34.7-8.766-56.586-14.917-17.958-5.049-19.232-20.81-30.757-42.143-12.658-23.428-12.75-57.779-16.474-84.819-1.071-7.639-2.274-15-3.8-21.842-5.093-22.969-11.665-45.488-17.689-68.235C7.23,628.325-4.545,568.58,12.516,518.019,22.156,489.448,45.917,463.808,71.586,448.29Z" transform="translate(-16902.799 -19211.438)" fill="none" stroke="#a0c9ec" stroke-miterlimit="10" stroke-width="0.25"/>
      <path id="Path_95962" data-name="Path 95962" d="M71.068,451.159c36.006-21.766,76.9-30.648,112.505-54.468,34.905-23.351,67.884-49.965,107.362-65.286C367.7,301.62,457.409,315.165,464.212,412.64c7.327,104.961,108.148,89.3,174.9,136.978,18.31,13.078,30.564,30.433,34.186,53.1,6.016,37.665-10.5,72.986-22.811,107.838-10.268,29.071-18.382,58.375-19.181,89.092-.843,32.395-13.449,55.826-33.5,75.676-10.164,21.629-24.368,38.212-48.238,46.756-24.273,8.69-53.375,10.389-80.849,18.64a209.364,209.364,0,0,0-50.07,22.627c-22.151,13.74-42.282,30.706-65.191,42.967-18.967,10.152-44.688,15.572-66.366,7.983a77.451,77.451,0,0,1-36.8-27c-6.9-9.08-12.971-18.778-19.752-27.893-12.263-16.487-25.185-29.262-41-38.235-13.308-7.55-27.766-11.047-42.933-11.445-22.235-.582-34.97-8.376-56.574-13.551-18.506-4.433-19.339-20.228-31.4-41.652C45.6,831.38,45.437,796.9,41.779,769.652c-1.048-7.675-2.228-15.06-3.74-21.895-5.079-23.018-11.669-45.578-17.7-68.367C7.2,629.811-4.48,570.525,12.451,520.352,22.017,492,45.594,466.558,71.068,451.159Z" transform="translate(-16902.799 -19210.066)" fill="none" stroke="#a0c9ec" stroke-miterlimit="10" stroke-width="0.25"/>
      <path id="Path_95963" data-name="Path 95963" d="M70.55,454.029c35.728-21.6,76.309-30.41,111.635-54.048,34.636-23.17,67.358-49.576,106.532-64.779,76.174-29.556,165.185-16.115,171.936,80.606,7.27,104.148,107.313,88.607,173.549,135.919,18.169,12.975,30.328,30.2,33.923,52.69,5.967,37.373-10.419,72.42-22.634,107-10.419,29.5-18.609,59.234-19.216,90.44-.642,33.024-17.446,53.283-35.046,76.294-14.1,18.44-24.749,36.465-48.372,44.285-23.919,7.918-52.341,8.907-79.134,16.969a191.492,191.492,0,0,0-48.572,22.622c-21.366,13.774-40.765,30.69-62.973,42.827-18.583,10.157-44.085,15.773-65.765,8.875a74.661,74.661,0,0,1-37.129-25.849c-6.94-8.922-12.982-18.506-19.636-27.588-11.982-16.358-24.46-29.417-39.923-38.758-13.071-7.9-27.311-11.685-42.291-12.324-21.814-.93-35.236-7.955-56.562-12.186-19.056-3.78-19.44-19.649-32.044-41.16C45.434,833,45.2,798.406,41.61,770.94c-1.025-7.71-2.181-15.118-3.683-21.945-5.064-23.07-11.67-45.667-17.717-68.5C7.181,631.3-4.413,572.472,12.386,522.689,21.879,494.556,45.274,469.309,70.55,454.029Z" transform="translate(-16902.799 -19208.695)" fill="none" stroke="#a0c9ec" stroke-miterlimit="10" stroke-width="0.25"/>
      <path id="Path_95964" data-name="Path 95964" d="M70.031,456.9c35.45-21.43,75.714-30.174,110.765-53.625,34.366-22.99,66.833-49.192,105.7-64.275,75.58-29.327,163.9-15.989,170.6,79.978,7.214,103.336,106.477,87.917,172.2,134.858,18.028,12.875,30.093,29.963,33.658,52.279,5.923,37.083-10.337,71.857-22.458,106.17-10.569,29.923-18.833,60.094-19.248,91.79-.44,33.653-17.616,53.994-36.586,76.906-14.4,17.4-25.132,34.724-48.509,41.817-23.565,7.151-51.308,7.423-77.418,15.3a175.292,175.292,0,0,0-47.073,22.615c-20.583,13.8-39.245,30.675-60.753,42.69-18.2,10.165-43.484,15.976-65.164,9.764a72.06,72.06,0,0,1-37.459-24.7c-6.979-8.764-13-18.235-19.522-27.285-11.7-16.224-23.733-29.57-38.842-39.28a84.994,84.994,0,0,0-41.648-13.2c-21.393-1.275-35.5-7.5-56.55-10.82-19.6-3.091-19.534-19.078-32.685-40.67-13.756-22.586-14.07-57.3-17.593-84.981-1-7.747-2.135-15.176-3.629-22-5.046-23.12-11.67-45.759-17.728-68.633C7.157,632.787-4.347,574.417,12.321,525.023,21.739,497.109,44.952,472.06,70.031,456.9Z" transform="translate(-16902.799 -19207.326)" fill="none" stroke="#a0c9ec" stroke-miterlimit="10" stroke-width="0.25"/>
      <path id="Path_95965" data-name="Path 95965" d="M69.513,459.768c35.171-21.262,75.118-29.937,109.9-53.2,34.094-22.811,66.308-48.8,104.871-63.768,74.989-29.1,162.611-15.866,169.257,79.349,7.156,102.524,105.639,87.226,170.843,133.8,17.886,12.773,29.856,29.727,33.393,51.867,5.877,36.793-10.256,71.294-22.281,105.336-10.719,30.348-19.058,60.954-19.28,93.14-.238,34.281-17.743,54.771-38.129,77.523-14.688,16.392-25.51,32.981-48.642,39.345-23.209,6.386-50.276,5.939-75.7,13.628a160.594,160.594,0,0,0-45.571,22.609c-19.8,13.833-37.725,30.664-58.536,42.552-17.813,10.176-42.883,16.184-64.563,10.653C270,1008.753,257,1001.043,247.277,989.048c-7.016-8.6-13.008-17.963-19.406-26.98-11.419-16.095-23.005-29.728-37.761-39.8A82.616,82.616,0,0,0,149.1,908.184c-20.973-1.617-35.75-7.019-56.536-9.455-20.148-2.36-19.624-18.509-33.328-40.18-14.113-22.315-14.509-57.142-17.965-85.035-.979-7.783-2.09-15.233-3.573-22.047C32.667,728.3,26.026,705.619,19.957,682.7c-12.825-48.427-24.239-106.341-7.7-155.348C21.6,499.661,44.631,474.809,69.513,459.768Z" transform="translate(-16902.799 -19205.955)" fill="none" stroke="#a0c9ec" stroke-miterlimit="10" stroke-width="0.25"/>
      <path id="Path_95966" data-name="Path 95966" d="M68.994,462.638c34.893-21.094,74.524-29.7,109.025-52.783,33.826-22.63,65.783-48.418,104.04-63.265,74.394-28.866,161.323-15.739,167.916,78.722,7.1,101.712,104.8,86.535,169.49,132.738,17.744,12.674,29.62,29.493,33.128,51.459,5.831,36.5-10.175,70.728-22.1,104.5-10.87,30.775-19.22,61.815-19.314,94.489.03,34.909-17.824,55.62-39.67,78.138-14.965,15.426-25.89,31.245-48.777,36.876-22.855,5.623-49.242,4.454-73.988,11.956-16.9,5.12-31.406,13.373-44.072,22.6-19.021,13.86-36.2,30.653-56.318,42.414-17.426,10.187-42.28,16.392-63.962,11.543-15.14-3.388-28.354-10.646-38.118-22.4-7.052-8.445-13.02-17.69-19.29-26.675-11.141-15.964-22.274-29.886-36.682-40.324a80.424,80.424,0,0,0-40.365-14.961c-20.553-1.956-35.986-6.509-56.524-8.089-20.683-1.591-19.707-17.948-33.97-39.689-14.465-22.05-14.95-56.982-18.339-85.088-.957-7.82-2.043-15.292-3.517-22.1-5.015-23.22-11.674-45.939-17.754-68.9C7.106,635.764-4.216,578.312,12.19,529.691,21.461,502.216,44.309,477.561,68.994,462.638Z" transform="translate(-16902.799 -19204.586)" fill="none" stroke="#a0c9ec" stroke-miterlimit="10" stroke-width="0.25"/>
      <path id="Path_95967" data-name="Path 95967" d="M68.475,465.507c34.616-20.926,73.931-29.465,108.156-52.362,33.554-22.45,65.257-48.034,103.209-62.76,73.8-28.635,160.036-15.612,166.576,78.093,7.043,100.9,103.966,85.846,168.137,131.679,17.6,12.573,29.383,29.257,32.865,51.047,5.784,36.209-10.094,70.166-21.927,103.668-11.022,31.2-19.449,62.674-19.348,95.838.224,35.539-17.867,56.549-41.212,78.753-15.245,14.5-26.269,29.511-48.913,34.407-22.5,4.865-48.207,2.972-72.273,10.285-16.395,4.98-30.327,13.277-42.571,22.6-18.244,13.883-34.681,30.647-54.1,42.276-17.039,10.2-41.679,16.607-63.363,12.432-15.211-2.928-28.642-9.736-38.447-21.248-7.089-8.287-13.032-17.419-19.172-26.372C215.232,948.01,204.55,933.8,190.493,923a78.447,78.447,0,0,0-39.724-15.841c-20.134-2.294-36.2-5.974-56.511-6.723-21.206-.781-19.787-17.392-34.613-39.2-14.815-21.789-15.391-56.824-18.71-85.143-.934-7.855-2-15.35-3.463-22.15-5-23.272-11.676-46.031-17.766-69.034C7.082,637.25-4.151,580.257,12.126,532.024,21.321,504.769,43.988,480.31,68.475,465.507Z" transform="translate(-16902.799 -19203.215)" fill="none" stroke="#a0c9ec" stroke-miterlimit="10" stroke-width="0.25"/>
      <path id="Path_95968" data-name="Path 95968" d="M67.957,468.376c34.336-20.757,73.335-29.225,107.285-51.94,33.285-22.268,64.733-47.645,102.379-62.255,73.207-28.4,158.747-15.488,165.236,77.465,6.986,100.089,103.131,85.154,166.784,130.62,17.462,12.471,29.148,29.023,32.6,50.638,5.736,35.916-10.011,69.6-21.752,102.832-11.17,31.628-19.68,63.532-19.382,97.187.422,36.167-17.873,57.562-42.752,79.369-15.53,13.612-26.649,27.78-49.048,31.937-22.143,4.107-47.174,1.486-70.559,8.614-15.885,4.838-29.25,13.182-41.07,22.589-17.47,13.906-33.154,30.643-51.881,42.137-16.649,10.219-41.075,16.824-62.759,13.325-15.283-2.466-28.935-8.828-38.777-20.1-7.128-8.129-13.047-17.145-19.059-26.065-10.583-15.7-20.81-30.206-34.521-41.368A76.605,76.605,0,0,0,151.6,906.644c-19.716-2.629-36.4-5.422-56.5-5.358-21.712.069-19.86-16.842-35.256-38.708-15.16-21.53-15.83-56.662-19.083-85.2-.911-7.891-1.95-15.41-3.4-22.2-4.984-23.321-11.677-46.12-17.781-69.164C7.059,638.738-4.085,582.2,12.06,534.359,21.182,507.324,43.666,483.062,67.957,468.376Z" transform="translate(-16902.799 -19201.844)" fill="none" stroke="#a0c9ec" stroke-miterlimit="10" stroke-width="0.25"/>
      <path id="Path_95969" data-name="Path 95969" d="M67.439,471.247c34.057-20.588,72.739-28.99,106.415-51.52,33.015-22.088,64.208-47.26,101.55-61.75C348.014,329.8,432.863,342.615,439.3,434.814c6.931,99.277,102.294,84.463,165.432,129.561,17.32,12.369,28.911,28.785,32.335,50.226,5.691,35.627-9.93,69.035-21.575,102-11.322,32.053-19.91,64.393-19.414,98.539.616,36.792-17.855,58.66-44.293,79.982-15.829,12.763-27.029,26.053-49.183,29.467-21.788,3.356-46.14,0-68.843,6.944-15.377,4.7-28.176,13.082-39.572,22.583-16.7,13.925-31.627,30.641-49.661,42-16.256,10.238-40.471,17.043-62.161,14.214-15.352-2-29.224-7.92-39.105-18.95-7.165-7.97-13.075-16.861-18.944-25.761-10.33-15.549-20.072-30.366-33.439-41.889a74.979,74.979,0,0,0-38.439-17.6c-19.3-2.963-36.574-4.85-56.486-3.994-22.2.955-19.929-16.3-35.9-38.218-15.5-21.28-16.27-56.5-19.456-85.25-.888-7.926-1.9-15.466-3.351-22.254-4.968-23.371-11.678-46.209-17.792-69.3C7.034,640.225-4.018,584.149,11.994,536.693,21.043,509.877,43.344,485.812,67.439,471.247Z" transform="translate(-16902.799 -19200.473)" fill="none" stroke="#a0c9ec" stroke-miterlimit="10" stroke-width="0.25"/>
      <path id="Path_95970" data-name="Path 95970" d="M66.92,474.116c33.778-20.419,72.145-28.751,105.545-51.1,32.745-21.908,63.682-46.874,100.719-61.246,72.018-27.945,156.172-15.236,162.554,76.209,6.874,98.465,101.458,83.773,164.079,128.5C617,578.751,628.493,595.033,631.889,616.3c5.643,35.335-9.849,68.471-21.4,101.165-11.471,32.48-20.141,65.251-19.448,99.887.812,37.422-17.816,59.85-45.835,80.6-16.146,11.955-27.41,24.331-49.318,27-21.434,2.609-45.107-1.478-67.127,5.273-14.868,4.557-27.1,12.982-38.071,22.577-15.931,13.941-30.1,30.641-47.444,41.862-15.862,10.262-39.866,17.267-61.558,15.1-15.422-1.539-29.516-7.01-39.436-17.8-7.2-7.81-13.085-16.591-18.828-25.456-10.048-15.421-19.335-30.529-32.36-42.411a73.54,73.54,0,0,0-37.8-18.477A215.59,215.59,0,0,0,96.8,902.99c-22.665,1.878-19.994-15.76-36.54-37.725-15.845-21.037-16.712-56.346-19.829-85.307-.865-7.963-1.859-15.525-3.3-22.3-4.953-23.421-11.68-46.3-17.8-69.429-12.319-46.51-23.28-102.129-7.4-149.2C20.9,512.431,43.023,488.562,66.92,474.116Z" transform="translate(-16902.799 -19199.102)" fill="none" stroke="#a0c9ec" stroke-miterlimit="10" stroke-width="0.25"/>
      <path id="Path_95971" data-name="Path 95971" d="M66.4,476.986c33.5-20.253,71.55-28.515,104.673-50.677,32.476-21.727,63.159-46.488,99.889-60.741,71.425-27.714,154.884-15.11,161.215,75.579C439,538.8,532.8,524.23,594.905,568.59,611.942,580.758,623.344,596.9,626.712,618c5.6,35.043-9.768,67.907-21.223,100.33-11.622,32.906-20.371,66.111-19.479,101.236,1.007,38.049-17.766,61.129-47.376,81.212-16.491,11.184-27.792,22.612-49.453,24.527-21.08,1.864-44.073-2.962-65.413,3.6-14.359,4.417-26.037,12.879-36.571,22.572-15.167,13.955-28.567,30.644-45.224,41.724-15.467,10.287-39.261,17.492-60.958,15.993-15.491-1.07-29.806-6.1-39.766-16.649-7.239-7.651-13.1-16.319-18.712-25.151-9.765-15.294-18.594-30.693-31.28-42.933A72.254,72.254,0,0,0,154.1,905.1c-18.467-3.617-36.832-3.668-56.461-1.262-23.105,2.832-20.053-15.227-37.183-37.236-16.184-20.794-17.151-56.185-20.2-85.359a225.159,225.159,0,0,0-3.238-22.355C32.081,735.418,25.335,712.5,19.2,689.328,6.983,643.2-3.887,588.042,11.864,541.362,20.765,514.984,42.7,491.312,66.4,476.986Z" transform="translate(-16902.799 -19197.732)" fill="none" stroke="#a0c9ec" stroke-miterlimit="10" stroke-width="0.25"/>
      <path id="Path_95972" data-name="Path 95972" d="M65.884,479.855c33.22-20.084,70.956-28.278,103.8-50.255,32.206-21.546,62.634-46.1,99.059-60.236,70.832-27.484,153.6-14.986,159.874,74.951C435.381,541.157,528.4,526.708,590,570.7c16.895,12.067,28.2,28.08,31.542,48.994,5.549,34.752-9.69,67.342-21.046,99.5-11.773,33.331-20.6,66.97-19.517,102.586,1.2,38.677-17.715,62.494-48.915,81.826-16.862,10.448-28.174,20.936-49.589,22.058-20.726,1.159-43.04-4.445-63.7,1.932-13.849,4.275-24.972,12.775-35.073,22.565-14.407,13.967-27.011,30.681-43.006,41.586-15.048,10.342-38.653,17.757-60.357,16.884-15.557-.576-30.1-5.195-40.093-15.5-7.279-7.493-13.108-16.049-18.6-24.848-9.482-15.163-17.828-30.875-30.2-43.454a71.154,71.154,0,0,0-36.512-20.234c-18.065-3.91-36.915-3.066-56.45.1-23.517,3.814-20.109-14.7-37.823-36.745C44.14,847.39,43.07,811.923,40.089,782.536a221.569,221.569,0,0,0-3.183-22.408c-4.922-23.523-11.684-46.481-17.829-69.7C6.961,644.689-3.822,589.988,11.8,543.7,20.626,517.539,42.381,494.064,65.884,479.855Z" transform="translate(-16902.799 -19196.361)" fill="none" stroke="#a0c9ec" stroke-miterlimit="10" stroke-width="0.25"/>
      <path id="Path_95973" data-name="Path 95973" d="M168.3,432.89c31.936-21.366,62.108-45.715,98.228-59.729,70.237-27.254,152.309-14.861,158.535,74.321,6.7,96.031,98.948,81.7,160.021,125.324,16.754,11.965,27.965,27.843,31.278,48.583,5.505,34.461-9.606,66.777-20.869,98.663-11.923,33.757-20.833,67.828-19.548,103.936,1.4,39.305-17.67,63.939-50.458,82.441-17.268,9.745-28.561,19.186-49.723,19.587-20.38.386-42.006-5.928-61.982.261-32.192,9.976-48.245,45.582-74.358,64.006-25.213,17.792-76.194,27.476-100.18,3.426-19.861-19.913-28.582-48.006-47.6-68.519-24.929-26.888-58.394-26.484-92.308-19.645-23.9,4.819-20.163-14.182-38.468-36.255-21.453-25.868-17.507-76.379-24.074-107.925-4.906-23.573-11.684-46.571-17.843-69.828-12.013-45.361-22.7-99.6-7.214-145.505,8.753-25.941,30.325-49.218,53.63-63.306C98.307,462.809,135.725,454.684,168.3,432.89Z" transform="translate(-16902.799 -19194.992)" fill="none" stroke="#a0c9ec" stroke-miterlimit="10" stroke-width="0.25"/>
    </g>
    <g id="Group_125694" data-name="Group 125694" transform="translate(-68 170.301)" opacity="0.2">
      <g id="Group_125693" data-name="Group 125693">
        <g id="Group_125692" data-name="Group 125692" clip-path="url(#clip-path)">
          <line id="Line_1040" data-name="Line 1040" x1="326" y2="326" transform="translate(30 633.205)" fill="none" stroke="#fee74b" stroke-linecap="round" stroke-miterlimit="10" stroke-width="60"/>
        </g>
      </g>
    </g>
  </g>
</svg>
