<svg xmlns="http://www.w3.org/2000/svg" xmlns:xlink="http://www.w3.org/1999/xlink" width="30" height="30" viewBox="0 0 30 30">
  <defs>
    <clipPath id="clip-path">
      <rect id="Rectangle_62825" data-name="Rectangle 62825" width="30" height="30" transform="translate(943 675)" fill="#fff" stroke="#707070" stroke-width="1"/>
    </clipPath>
  </defs>
  <g id="icon_arrow" transform="translate(-943 -675)" clip-path="url(#clip-path)">
    <g id="icon_arrow-2" data-name="icon_arrow" transform="translate(-27.334 -98.975)" opacity="0.195">
      <path id="Union_528" data-name="Union 528" d="M22.775,15,13.366,5.594,3.958,15A2.318,2.318,0,0,1,.68,11.724L11.728.677a2.317,2.317,0,0,1,3.278,0h0L26.053,11.724A2.318,2.318,0,1,1,22.775,15Z" transform="translate(998.701 789.652) rotate(180)" fill="#0f9ecf"/>
      <path id="Union_529" data-name="Union 529" d="M22.775,15,13.366,5.594,3.958,15A2.318,2.318,0,0,1,.68,11.724L11.728.677a2.317,2.317,0,0,1,3.278,0h0L26.053,11.724A2.318,2.318,0,1,1,22.775,15Z" transform="translate(998.701 803.973) rotate(180)" fill="#0f9ecf"/>
    </g>
  </g>
</svg>
