<svg xmlns="http://www.w3.org/2000/svg" xmlns:xlink="http://www.w3.org/1999/xlink" width="1590" height="523" viewBox="0 0 1590 523">
  <defs>
    <clipPath id="clip-path">
      <rect id="Rectangle_62691" data-name="Rectangle 62691" width="1590" height="523" transform="translate(165 236)" fill="#fff"/>
    </clipPath>
    <clipPath id="clip-path-2">
      <path id="Path_100342" data-name="Path 100342" d="M-2827.768-17468.979c9.647,25.24,73.181,68.654,105.77,71.9s75.364,21.207,164.562,0,100.749-111.447,107.357-135.053,10.2-137.283-31.542-183.818-95.967-86.105-163.207-82.418-114.37,25.338-145.016,61.49-74.039,99.355-68.092,157.068S-2837.415-17494.223-2827.768-17468.979Z" transform="translate(2858.49 17798.609)" fill="none" stroke="#707070" stroke-width="1"/>
    </clipPath>
  </defs>
  <g id="img_about" transform="translate(-165 -236)" clip-path="url(#clip-path)">
    <g id="Group_127759" data-name="Group 127759" transform="translate(104.138 -81.602)">
      <line id="Line_1041" data-name="Line 1041" x1="130.295" y2="130.132" transform="translate(985.049 358.634)" fill="none" stroke="#a0c9ec" stroke-linecap="round" stroke-miterlimit="10" stroke-width="60" opacity="0.196"/>
      <line id="Line_1040" data-name="Line 1040" x1="296.955" y2="297.09" transform="translate(540.46 488.766)" fill="none" stroke="#fee74b" stroke-linecap="round" stroke-miterlimit="10" stroke-width="100" opacity="0.196"/>
      <path id="Path_100343" data-name="Path 100343" d="M-2826.736-17457.906c9.971,26.09,75.64,70.965,109.323,74.314s77.9,21.92,170.092,0,104.134-115.189,110.964-139.592,10.539-141.895-32.6-189.992-99.191-89-168.691-85.187-118.213,26.188-149.889,63.555-76.526,102.7-70.38,162.348S-2836.707-17484-2826.736-17457.906Z" transform="translate(3489.312 18116.211)" fill="#fff" stroke="#ecf5fc" stroke-width="1" opacity="0.434"/>
      <g id="Mask_Group_89624" data-name="Mask Group 89624" transform="translate(637.752 324.519)" clip-path="url(#clip-path-2)">
        <image id="sherry-2" width="570.362" height="760.483" transform="translate(-113.466 -143.16)" xlink:href="../../sherry-2.jpg"/>
      </g>
    </g>
  </g>
</svg>
