<svg xmlns="http://www.w3.org/2000/svg" xmlns:xlink="http://www.w3.org/1999/xlink" width="316.139" height="85.861" viewBox="0 0 316.139 85.861">
  <defs>
    <clipPath id="clip-path">
      <rect id="Rectangle_62293" data-name="Rectangle 62293" width="224.073" height="16.791" fill="none"/>
    </clipPath>
    <clipPath id="clip-path-2">
      <rect id="Rectangle_62292" data-name="Rectangle 62292" width="224.073" height="16.79" fill="none"/>
    </clipPath>
    <filter id="Rectangle_62683" x="0" y="0" width="85.861" height="85.861" filterUnits="userSpaceOnUse">
      <feOffset input="SourceAlpha"/>
      <feGaussianBlur stdDeviation="5" result="blur"/>
      <feFlood flood-color="#fee74b" flood-opacity="0.749"/>
      <feComposite operator="in" in2="blur"/>
      <feComposite in="SourceGraphic"/>
    </filter>
  </defs>
  <g id="img_logo" transform="translate(-160.934 -22.964)">
    <g id="Group_125939" data-name="Group 125939" transform="translate(253 58)">
      <g id="Group_125938" data-name="Group 125938" clip-path="url(#clip-path)">
        <g id="Group_125937" data-name="Group 125937" transform="translate(0 0.001)">
          <g id="Group_125936" data-name="Group 125936" clip-path="url(#clip-path-2)">
            <g id="Group_125935" data-name="Group 125935" transform="translate(0 -0.001)" opacity="0.8">
              <g id="Group_125934" data-name="Group 125934" transform="translate(0 0)">
                <g id="Group_125933" data-name="Group 125933" clip-path="url(#clip-path)">
                  <path id="Path_98800" data-name="Path 98800" d="M.281,12A.665.665,0,0,1,0,11.444a.715.715,0,0,1,.711-.73.658.658,0,0,1,.449.168,5.945,5.945,0,0,0,4.131,1.553c1.757,0,2.917-.935,2.917-2.225v-.037c0-1.216-.655-1.908-3.4-2.487C1.794,7.032.412,6.059.412,3.909V3.872C.412,1.814,2.225.3,4.711.3a6.674,6.674,0,0,1,4.17,1.291.758.758,0,0,1,.318.6.71.71,0,0,1-.711.709.69.69,0,0,1-.43-.131A5.473,5.473,0,0,0,4.674,1.627c-1.7,0-2.786.935-2.786,2.114v.037c0,1.233.673,1.925,3.553,2.543,2.917.636,4.262,1.7,4.262,3.7v.036c0,2.245-1.869,3.7-4.468,3.7A7.645,7.645,0,0,1,.281,12" transform="translate(0 0.168)" fill="#0098cc"/>
                  <path id="Path_98801" data-name="Path 98801" d="M8,.73a.72.72,0,1,1,1.44,0V5.76a3.657,3.657,0,0,1,3.308-1.889,3.531,3.531,0,0,1,3.7,3.871v5.366a.72.72,0,1,1-1.44,0V8.1c0-1.8-.971-2.917-2.672-2.917a2.843,2.843,0,0,0-2.9,3.029v4.9a.7.7,0,0,1-.711.73.719.719,0,0,1-.73-.73Z" transform="translate(4.474 0)" fill="#0098cc"/>
                  <path id="Path_98802" data-name="Path 98802" d="M19.837,12.58A4.807,4.807,0,0,1,15.012,7.55V7.512A4.769,4.769,0,0,1,19.65,2.483c2.861,0,4.487,2.337,4.487,4.9a.67.67,0,0,1-.672.673H16.471a3.376,3.376,0,0,0,3.4,3.272,3.955,3.955,0,0,0,2.786-1.121.62.62,0,0,1,1.046.447.616.616,0,0,1-.224.468,4.909,4.909,0,0,1-3.645,1.459M22.7,6.988c-.15-1.757-1.16-3.289-3.085-3.289a3.331,3.331,0,0,0-3.141,3.289Z" transform="translate(8.391 1.388)" fill="#0098cc"/>
                  <path id="Path_98803" data-name="Path 98803" d="M22.5,3.3a.727.727,0,0,1,.711-.73.719.719,0,0,1,.73.73V5.112A4,4,0,0,1,27.269,2.53a.692.692,0,0,1,.709.73.715.715,0,0,1-.636.73c-1.869.224-3.4,1.626-3.4,4.412v3.291a.72.72,0,1,1-1.44,0Z" transform="translate(12.577 1.414)" fill="#0098cc"/>
                  <path id="Path_98804" data-name="Path 98804" d="M27.36,3.3a.727.727,0,0,1,.711-.73.719.719,0,0,1,.73.73V5.112A4,4,0,0,1,32.129,2.53a.691.691,0,0,1,.709.73.715.715,0,0,1-.636.73c-1.869.224-3.4,1.626-3.4,4.412v3.291a.72.72,0,1,1-1.44,0Z" transform="translate(15.293 1.414)" fill="#0098cc"/>
                  <path id="Path_98805" data-name="Path 98805" d="M32.295,15.082a.657.657,0,0,1-.449-.617.622.622,0,0,1,.617-.616,1.093,1.093,0,0,1,.355.073,2.959,2.959,0,0,0,1.046.17c.9,0,1.422-.543,1.946-1.721l.075-.15L31.846,3.658a1,1,0,0,1-.094-.393.716.716,0,0,1,.73-.711.763.763,0,0,1,.728.561l3.367,7.592L39.567,3.1a.725.725,0,0,1,.692-.543.712.712,0,0,1,.711.711,1.208,1.208,0,0,1-.075.355l-3.777,9.012c-.84,2-1.776,2.73-3.233,2.73a4.547,4.547,0,0,1-1.59-.281" transform="translate(17.748 1.428)" fill="#0098cc"/>
                  <path id="Path_98806" data-name="Path 98806" d="M43.02,1.108a.738.738,0,1,1,1.476,0v5.16H52.05V1.108a.739.739,0,1,1,1.478,0v11.78a.739.739,0,1,1-1.478,0V7.653H44.5v5.235a.738.738,0,1,1-1.476,0Z" transform="translate(24.047 0.201)" fill="#0098cc"/>
                  <path id="Path_98807" data-name="Path 98807" d="M60.32,11.68a.711.711,0,1,1-1.422,0V10.634a3.682,3.682,0,0,1-3.31,1.888,3.531,3.531,0,0,1-3.7-3.871V3.285a.7.7,0,0,1,.709-.73.73.73,0,0,1,.73.73V8.3c0,1.794.973,2.917,2.674,2.917a2.855,2.855,0,0,0,2.9-3.029v-4.9a.7.7,0,0,1,.711-.73.715.715,0,0,1,.711.73Z" transform="translate(29.004 1.428)" fill="#0098cc"/>
                  <path id="Path_98808" data-name="Path 98808" d="M58.908,9.525V9.487c0-2.039,1.684-3.123,4.133-3.123a10.266,10.266,0,0,1,2.973.412V6.439c0-1.74-1.066-2.636-2.879-2.636a6.031,6.031,0,0,0-2.505.543.734.734,0,0,1-.262.056.639.639,0,0,1-.636-.617.66.66,0,0,1,.393-.6,7.619,7.619,0,0,1,3.16-.655A4.242,4.242,0,0,1,66.407,3.6,3.814,3.814,0,0,1,67.4,6.421v5.291a.684.684,0,0,1-.692.711.664.664,0,0,1-.692-.673V10.87a4.238,4.238,0,0,1-3.5,1.665c-1.794,0-3.609-1.029-3.609-3.01m7.124-.748V7.841a10.134,10.134,0,0,0-2.842-.412c-1.813,0-2.823.786-2.823,2v.037c0,1.214,1.121,1.925,2.43,1.925,1.776,0,3.235-1.085,3.235-2.618" transform="translate(32.928 1.415)" fill="#0098cc"/>
                  <path id="Path_98809" data-name="Path 98809" d="M66.324,3.324a.727.727,0,0,1,.711-.73.719.719,0,0,1,.73.73V4.371a3.657,3.657,0,0,1,3.308-1.889,3.531,3.531,0,0,1,3.7,3.871v5.366a.72.72,0,1,1-1.439,0V6.708c0-1.794-.973-2.917-2.674-2.917a2.844,2.844,0,0,0-2.9,3.029v4.9a.7.7,0,0,1-.711.73.719.719,0,0,1-.73-.73Z" transform="translate(37.073 1.387)" fill="#0098cc"/>
                  <path id="Path_98810" data-name="Path 98810" d="M74.16,14.242a.664.664,0,0,1-.374-.6.687.687,0,0,1,.655-.636.58.58,0,0,1,.318.094,6.1,6.1,0,0,0,3.422,1.046,3.176,3.176,0,0,0,3.514-3.441V9.569A4.582,4.582,0,0,1,77.9,11.608a4.47,4.47,0,0,1-4.544-4.526V7.045a4.577,4.577,0,0,1,8.32-2.618v-1.1a.715.715,0,0,1,.711-.73.73.73,0,0,1,.73.73v7.349a4.654,4.654,0,0,1-1.235,3.42A5.081,5.081,0,0,1,78.2,15.383a7.564,7.564,0,0,1-4.038-1.141m7.572-7.179V7.026a3.387,3.387,0,0,0-3.551-3.272,3.2,3.2,0,0,0-3.347,3.254v.037a3.272,3.272,0,0,0,3.347,3.291,3.41,3.41,0,0,0,3.551-3.272" transform="translate(41.004 1.388)" fill="#0098cc"/>
                  <path id="Path_98811" data-name="Path 98811" d="M81.5,3.95a1.461,1.461,0,0,0,1.048-1.532.891.891,0,0,1-.73-.879v-.3A.862.862,0,0,1,82.674.36a.936.936,0,0,1,.915,1.027v.355a3,3,0,0,1-.672,2.243,2.217,2.217,0,0,1-1.272.694.359.359,0,0,1-.393-.374A.366.366,0,0,1,81.5,3.95" transform="translate(45.418 0.201)" fill="#0098cc"/>
                  <path id="Path_98812" data-name="Path 98812" d="M84.07,11.314a.65.65,0,0,1-.262-.522.626.626,0,0,1,.636-.617.585.585,0,0,1,.355.111,5.425,5.425,0,0,0,3.066,1.029c1.158,0,2-.6,2-1.532V9.744c0-.973-1.141-1.347-2.413-1.7-1.514-.429-3.2-.953-3.2-2.73V5.276c0-1.665,1.383-2.769,3.289-2.769a6.738,6.738,0,0,1,3.087.823.7.7,0,0,1,.354.6.627.627,0,0,1-.635.617.722.722,0,0,1-.318-.076,5.251,5.251,0,0,0-2.524-.748c-1.141,0-1.871.6-1.871,1.4v.037c0,.917,1.2,1.272,2.488,1.665,1.5.449,3.1,1.027,3.1,2.767v.037c0,1.832-1.514,2.9-3.439,2.9a6.684,6.684,0,0,1-3.721-1.216" transform="translate(46.846 1.401)" fill="#0098cc"/>
                  <path id="Path_98813" data-name="Path 98813" d="M94.043,1.168a.746.746,0,0,1,.73-.748h4.169c2.954,0,4.9,1.57,4.9,4.15v.037c0,2.823-2.356,4.282-5.141,4.282H95.519v3.963a.738.738,0,1,1-1.476,0Zm4.711,6.375c2.17,0,3.59-1.158,3.59-2.879V4.626c0-1.869-1.4-2.84-3.515-2.84h-3.31V7.543Z" transform="translate(52.567 0.235)" fill="#0098cc"/>
                  <path id="Path_98814" data-name="Path 98814" d="M101.46,7.568V7.531a5.039,5.039,0,0,1,10.077-.037v.037a5.019,5.019,0,0,1-5.067,5.048,4.951,4.951,0,0,1-5.011-5.011m8.6,0V7.531a3.66,3.66,0,0,0-3.59-3.777,3.568,3.568,0,0,0-3.533,3.74v.037a3.626,3.626,0,0,0,3.57,3.759,3.567,3.567,0,0,0,3.553-3.721" transform="translate(56.713 1.388)" fill="#0098cc"/>
                  <path id="Path_98815" data-name="Path 98815" d="M109.6,3.3a.727.727,0,0,1,.711-.73.719.719,0,0,1,.73.73V5.112a4,4,0,0,1,3.328-2.582.691.691,0,0,1,.709.73.715.715,0,0,1-.636.73c-1.869.224-3.4,1.626-3.4,4.412v3.291a.72.72,0,1,1-1.44,0Z" transform="translate(61.261 1.414)" fill="#0098cc"/>
                  <path id="Path_98816" data-name="Path 98816" d="M115.289,10.8V4.965H114.5a.656.656,0,0,1-.636-.636.644.644,0,0,1,.636-.636h.786V1.413A.716.716,0,0,1,116,.683a.743.743,0,0,1,.728.73V3.693h2.505a.659.659,0,0,1,.655.636.647.647,0,0,1-.655.636h-2.505v5.647a1.431,1.431,0,0,0,1.628,1.609,4.033,4.033,0,0,0,.878-.131.621.621,0,0,1,.617.616.6.6,0,0,1-.412.561,3.631,3.631,0,0,1-1.42.262,2.461,2.461,0,0,1-2.73-2.73" transform="translate(63.648 0.382)" fill="#0098cc"/>
                  <path id="Path_98817" data-name="Path 98817" d="M120.154,5.342h-.786a.614.614,0,0,1-.616-.636.621.621,0,0,1,.616-.617h.786V3.246A3.405,3.405,0,0,1,121,.761,2.844,2.844,0,0,1,123.07.013a4.911,4.911,0,0,1,1.141.111.645.645,0,0,1,.524.617.621.621,0,0,1-.692.617,5.046,5.046,0,0,0-.786-.094c-1.122,0-1.684.673-1.684,2.056v.786h2.507a.615.615,0,0,1,.635.617.627.627,0,0,1-.635.617h-2.488V13.1a.713.713,0,0,1-.709.73.73.73,0,0,1-.73-.73Z" transform="translate(66.379 0.007)" fill="#0098cc"/>
                  <path id="Path_98818" data-name="Path 98818" d="M123.2,7.568V7.531a5.039,5.039,0,0,1,10.079-.037v.037a5.02,5.02,0,0,1-5.068,5.048A4.951,4.951,0,0,1,123.2,7.568m8.6,0V7.531a3.659,3.659,0,0,0-3.59-3.777,3.568,3.568,0,0,0-3.533,3.74v.037a3.626,3.626,0,0,0,3.57,3.759A3.567,3.567,0,0,0,131.8,7.568" transform="translate(68.867 1.388)" fill="#0098cc"/>
                  <path id="Path_98819" data-name="Path 98819" d="M131.422.73a.72.72,0,1,1,1.44,0V13.108a.7.7,0,0,1-.711.73.719.719,0,0,1-.73-.73Z" transform="translate(73.461 0)" fill="#0098cc"/>
                  <path id="Path_98820" data-name="Path 98820" d="M134.494.945a.856.856,0,0,1,1.7,0V1.19a.856.856,0,0,1-1.7,0Zm.131,3.665a.727.727,0,0,1,.711-.73.719.719,0,0,1,.73.73v8.4a.7.7,0,0,1-.711.73.719.719,0,0,1-.73-.73Z" transform="translate(75.178 0.101)" fill="#0098cc"/>
                  <path id="Path_98821" data-name="Path 98821" d="M137.266,7.568V7.531a5.039,5.039,0,0,1,10.079-.037v.037a5.02,5.02,0,0,1-5.068,5.048,4.951,4.951,0,0,1-5.011-5.011m8.6,0V7.531a3.659,3.659,0,0,0-3.59-3.777,3.568,3.568,0,0,0-3.533,3.74v.037a3.626,3.626,0,0,0,3.57,3.759,3.567,3.567,0,0,0,3.553-3.721" transform="translate(76.728 1.388)" fill="#0098cc"/>
                </g>
              </g>
            </g>
          </g>
        </g>
      </g>
    </g>
    <g id="Group_127750" data-name="Group 127750" transform="translate(0 -46.156)">
      <g transform="matrix(1, 0, 0, 1, 160.93, 69.12)" filter="url(#Rectangle_62683)">
        <rect id="Rectangle_62683-2" data-name="Rectangle 62683" width="61" height="18" rx="9" transform="translate(15 58.13) rotate(-45)" fill="#fff"/>
      </g>
      <rect id="Rectangle_62682" data-name="Rectangle 62682" width="42" height="16" rx="8" transform="translate(161.707 124.547) rotate(-45)" fill="#fee74b"/>
    </g>
  </g>
</svg>
