<svg xmlns="http://www.w3.org/2000/svg" width="18" height="18" viewBox="0 0 18 18">
  <g id="phone-call-outline" transform="translate(-2 -2)">
    <g id="Layer_2" data-name="Layer 2" transform="translate(2 2)">
      <g id="phone-call">
        <path id="路径_4" data-name="路径 4" d="M12.9,7.8a2.7,2.7,0,0,1,2.7,2.7.9.9,0,0,0,1.8,0A4.5,4.5,0,0,0,12.9,6a.9.9,0,1,0,0,1.8Z" transform="translate(-3 -2.4)" fill="#fff"/>
        <path id="路径_5" data-name="路径 5" d="M12.9,3.8a6.3,6.3,0,0,1,6.3,6.3.9.9,0,0,0,1.8,0A8.1,8.1,0,0,0,12.9,2a.9.9,0,0,0,0,1.8Z" transform="translate(-3 -2)" fill="#fff"/>
        <path id="路径_6" data-name="路径 6" d="M19.775,14.519a.9.9,0,0,0-.648-.585l-5.4-1.233a.9.9,0,0,0-.828.234c-.126.117-.135.126-.72,1.242A8.919,8.919,0,0,1,7.8,9.776C8.939,9.2,8.948,9.2,9.065,9.065A.9.9,0,0,0,9.3,8.237L8.066,2.9a.9.9,0,0,0-.585-.648,3.411,3.411,0,0,0-.648-.162A3.546,3.546,0,0,0,6.14,2,4.14,4.14,0,0,0,2,6.14,13.878,13.878,0,0,0,15.86,20,4.14,4.14,0,0,0,20,15.86a4.293,4.293,0,0,0-.054-.684A3.906,3.906,0,0,0,19.775,14.519ZM15.86,18.2A12.069,12.069,0,0,1,3.8,6.14,2.349,2.349,0,0,1,6.14,3.8h.3L7.4,7.976l-.486.252c-.774.4-1.386.729-1.062,1.431a10.665,10.665,0,0,0,6.462,6.489c.756.306,1.053-.261,1.458-1.044l.261-.495,4.167.954v.3A2.349,2.349,0,0,1,15.86,18.2Z" transform="translate(-2 -2)" fill="#fff"/>
      </g>
    </g>
  </g>
</svg>
