<svg xmlns="http://www.w3.org/2000/svg" width="145.705" height="32.958" viewBox="0 0 145.705 32.958">
  <g id="组_251" data-name="组 251" transform="translate(460.39 81.136)">
    <path id="路径_7" data-name="路径 7" d="M-425.761-80.672c-7.949,3.173-16.156,6.193-23.22,11.122q-.474.331-.939.672a1.513,1.513,0,0,0-.563.61c-.384.978,2.348,2.05,2.977,2.431,2.324,1.412,4.63,2.858,6.846,4.436,1.74,1.239,4.01,2.559,5.316,4.279a2.216,2.216,0,0,1,.486,1.726,2.874,2.874,0,0,1-.992,1.474c-2.587,2.36-6.038,3.409-9.381,4.19a51.726,51.726,0,0,1-14.737.924l-.392-.023" transform="translate(0 0)" fill="none" stroke="#fff" stroke-miterlimit="10" stroke-width="1"/>
    <path id="路径_8" data-name="路径 8" d="M-379.036-74.789c-.558,3.435-1.246,6.847-2.03,10.237a88.232,88.232,0,0,1-2.553,9.877,66.786,66.786,0,0,0-2.643,8.014c-.085.387-.515,1.764.17,1.06,2.545-2.613,5.109-5.206,7.725-7.749.447-.435,1,.821,1.13,1.078.176.359.324.728.47,1.1a3.8,3.8,0,0,0,.794,1.13,4.982,4.982,0,0,0,1.657,1.144,4.442,4.442,0,0,0,4.441-.273,2.316,2.316,0,0,0,.738-1.037,1.067,1.067,0,0,0-.253-1.052,1.85,1.85,0,0,0-.888-.517,4.106,4.106,0,0,0-4.582,2.164,3.354,3.354,0,0,0-.178,2.358c.487,1.622,2.185,1.736,3.631,1.627a29.5,29.5,0,0,0,12.049-4.034,35.476,35.476,0,0,1,8.285-3.609,6.407,6.407,0,0,1,2.6-.258c1.646.276,2.789,1.574,4.322,2.154a15.062,15.062,0,0,0,5.421.766c4.887-.035,8.926-.495,13.353-2.805,3.482-1.817,6.849-4.014,10.678-4.889a32.534,32.534,0,0,1,6.9-.577c11.438-.13,23.006-.111,34.121-2.813" transform="translate(-41.124 -3.274)" fill="none" stroke="#fff" stroke-miterlimit="10" stroke-width="1"/>
  </g>
</svg>
